<?xml version="1.0" encoding="utf-8"?>
<!-- Generator: Adobe Illustrator 24.2.3, SVG Export Plug-In . SVG Version: 6.00 Build 0)  -->
<svg version="1.1" id="Layer_1" xmlns="http://www.w3.org/2000/svg" xmlns:xlink="http://www.w3.org/1999/xlink" x="0px" y="0px"
	 viewBox="0 0 30 30" style="enable-background:new 0 0 30 30;" xml:space="preserve">
<style type="text/css">
	.st0{display:none;fill:#E5E5E5;}
	.st1{fill:#E5E5E5;}
	.st2{fill:#00ABE9;}
	.st3{fill:#0095FF;}
</style>
<rect class="st0" width="30" height="30"/>
<circle class="st1" cx="15" cy="15" r="14.7"/>
<g>
	<g>
		<path class="st2" d="M15,5.9c-2.4,0-4.3,1.9-4.3,4.3c0,2.4,1.9,4.3,4.3,4.3s4.3-1.9,4.3-4.3C19.3,7.8,17.4,5.9,15,5.9z"/>
		<path class="st2" d="M22,18.5c-1.3-1.9-3.4-3.1-5.7-3.1h-2.6c-2.3,0-4.4,1.1-5.7,3.1l-0.1,0.1v3.5h14.2v-3.5L22,18.5z"/>
	</g>
	<g>
		<path class="st3" d="M15,14.4V5.9c2.4,0,4.3,1.9,4.3,4.3C19.3,12.5,17.4,14.4,15,14.4z"/>
		<path class="st3" d="M22.1,18.6v3.5H15v-6.6h1.3c2.3,0,4.4,1.1,5.7,3.1L22.1,18.6z"/>
	</g>
</g>
</svg>
